<svg width="14" height="14" viewBox="0 0 14 14" fill="none" xmlns="http://www.w3.org/2000/svg"><path d="M14.0006 14V8.87249C14.0006 6.35249 13.4581 4.42749 10.5181 4.42749C9.10062 4.42749 8.15563 5.19749 7.77063 5.93249H7.73563V4.65499H4.95312V14H7.85813V9.36249C7.85813 8.13749 8.08563 6.96499 9.59063 6.96499C11.0781 6.96499 11.0956 8.34749 11.0956 9.43249V13.9825H14.0006V14Z" fill="white"/><path d="M0.226562 4.65479H3.13156V13.9998H0.226562V4.65479Z" fill="white"/><path d="M1.68 0C0.7525 0 0 0.7525 0 1.68C0 2.6075 0.7525 3.3775 1.68 3.3775C2.6075 3.3775 3.36 2.6075 3.36 1.68C3.36 0.7525 2.6075 0 1.68 0Z" fill="white"/></svg>